<svg width="134" height="22" viewBox="0 0 134 22" fill="none" xmlns="http://www.w3.org/2000/svg">
<path d="M35.6977 4.30701C36.5418 4.30701 37.3043 4.42274 37.985 4.65419C38.6794 4.88564 39.2648 5.2192 39.7413 5.65487C40.2178 6.07693 40.5854 6.59429 40.8441 7.20695C41.1028 7.81961 41.2321 8.50035 41.2321 9.24916C41.2321 9.99797 41.1028 10.6787 40.8441 11.2914C40.5854 11.8904 40.2178 12.4078 39.7413 12.8434C39.2648 13.2655 38.6862 13.5923 38.0054 13.8237C37.3247 14.0552 36.5555 14.1709 35.6977 14.1709H32.8999V17.9898H30.2246V4.30701H35.6977ZM35.5139 11.7202C36.4125 11.7202 37.1205 11.5024 37.6378 11.0667C38.1552 10.631 38.4139 10.0456 38.4139 9.31042C38.4139 8.56161 38.1552 7.97618 37.6378 7.55412C37.1205 7.11845 36.4125 6.90062 35.5139 6.90062H32.8999V11.7202H35.5139Z" fill="white"/>
<path d="M42.5466 12.6596C42.5466 11.87 42.6896 11.1416 42.9755 10.4745C43.2614 9.79375 43.6494 9.20831 44.1395 8.71818C44.6433 8.21444 45.2355 7.82642 45.9163 7.55412C46.597 7.26821 47.3322 7.12526 48.1218 7.12526C48.9115 7.12526 49.6467 7.26821 50.3274 7.55412C51.0082 7.82642 51.6004 8.21444 52.1042 8.71818C52.6079 9.20831 53.0027 9.79375 53.2886 10.4745C53.5745 11.1416 53.7175 11.87 53.7175 12.6596C53.7175 13.4357 53.5745 14.1641 53.2886 14.8448C53.0027 15.5119 52.6079 16.0974 52.1042 16.6011C51.6004 17.0912 51.0082 17.4793 50.3274 17.7652C49.6467 18.0375 48.9115 18.1736 48.1218 18.1736C47.3322 18.1736 46.597 18.0375 45.9163 17.7652C45.2355 17.4793 44.6433 17.0912 44.1395 16.6011C43.6358 16.0974 43.241 15.5119 42.9551 14.8448C42.6828 14.1641 42.5466 13.4357 42.5466 12.6596ZM45.2423 12.6596C45.2423 13.0545 45.3104 13.4357 45.4466 13.8033C45.5827 14.1573 45.7733 14.4704 46.0184 14.7427C46.2771 15.015 46.5834 15.2328 46.9374 15.3962C47.305 15.5596 47.7066 15.6413 48.1423 15.6413C48.5779 15.6413 48.9728 15.5596 49.3268 15.3962C49.6807 15.2328 49.9803 15.015 50.2253 14.7427C50.484 14.4704 50.6814 14.1573 50.8176 13.8033C50.9537 13.4357 51.0218 13.0545 51.0218 12.6596C51.0218 12.2648 50.9537 11.8836 50.8176 11.516C50.6814 11.1484 50.484 10.8285 50.2253 10.5562C49.9803 10.2839 49.6807 10.066 49.3268 9.90266C48.9728 9.73929 48.5779 9.6576 48.1423 9.6576C47.7066 9.6576 47.305 9.73929 46.9374 9.90266C46.5834 10.066 46.2771 10.2839 46.0184 10.5562C45.7733 10.8285 45.5827 11.1484 45.4466 11.516C45.3104 11.8836 45.2423 12.2648 45.2423 12.6596Z" fill="white"/>
<path d="M55.4192 10.3928C55.4192 9.35807 55.8004 8.55481 56.5629 7.98299C57.3253 7.41117 58.3872 7.12526 59.7487 7.12526C61.1374 7.12526 62.1994 7.41798 62.9346 8.00341C63.6834 8.58884 64.0714 9.41253 64.0986 10.4745H61.4846C61.471 10.0797 61.3076 9.76652 60.9945 9.53507C60.6949 9.29 60.2865 9.16747 59.7691 9.16747C59.1973 9.16747 58.7616 9.26958 58.4621 9.4738C58.1626 9.66441 58.0128 9.94351 58.0128 10.3111C58.0128 10.6923 58.1694 10.9782 58.4825 11.1688C58.7957 11.3458 59.1837 11.4888 59.6466 11.5977C60.1231 11.7066 60.6337 11.8155 61.1783 11.9244C61.7228 12.0198 62.2266 12.1763 62.6895 12.3942C63.166 12.5984 63.5608 12.8979 63.874 13.2927C64.1871 13.6739 64.3437 14.2049 64.3437 14.8857C64.3437 15.9068 63.9625 16.71 63.2 17.2955C62.4512 17.8673 61.3348 18.1532 59.8508 18.1532C58.326 18.1532 57.1687 17.8469 56.3791 17.2342C55.5894 16.6215 55.1946 15.7978 55.1946 14.7631H57.8086C57.9311 15.6617 58.6255 16.111 59.8917 16.111C61.1034 16.111 61.7092 15.7434 61.7092 15.0082C61.7092 14.6406 61.5527 14.3683 61.2395 14.1913C60.9264 14.0143 60.5384 13.8782 60.0755 13.7829C59.6126 13.6739 59.1088 13.5718 58.5642 13.4765C58.0196 13.3812 57.5159 13.2247 57.053 13.0068C56.5901 12.789 56.2021 12.4827 55.8889 12.0878C55.5758 11.6794 55.4192 11.1144 55.4192 10.3928Z" fill="white"/>
<path d="M70.1909 4.18448V7.32948H72.8458V9.4738H70.1909V14.2934C70.1909 14.8925 70.3271 15.2941 70.5994 15.4983C70.8717 15.7025 71.2461 15.8046 71.7226 15.8046C71.8996 15.8046 72.0766 15.7978 72.2536 15.7842C72.4442 15.757 72.6416 15.7298 72.8458 15.7025V18.0511C72.2195 18.1328 71.6409 18.1736 71.1099 18.1736C70.5653 18.1736 70.0752 18.1191 69.6395 18.0102C69.2039 17.9013 68.8363 17.7175 68.5368 17.4588C68.2372 17.1865 68.0058 16.8394 67.8424 16.4173C67.6926 15.9816 67.6178 15.4507 67.6178 14.8244V9.4738H65.8002V7.32948H67.6178V4.18448H70.1909Z" fill="white"/>
<path d="M74.2367 12.6596C74.2367 11.87 74.3797 11.1416 74.6656 10.4745C74.9515 9.79375 75.3395 9.20831 75.8297 8.71818C76.3334 8.21444 76.9257 7.82642 77.6064 7.55412C78.2871 7.26821 79.0223 7.12526 79.812 7.12526C80.5063 7.12526 81.153 7.23418 81.7521 7.45201C82.3647 7.65623 82.9093 7.94895 83.3858 8.33016C83.8623 8.69776 84.2572 9.14705 84.5703 9.67802C84.8835 10.209 85.0877 10.7944 85.183 11.4343H82.426C82.249 10.9033 81.9359 10.4745 81.4866 10.1477C81.0373 9.80736 80.4859 9.63718 79.8324 9.63718C79.3967 9.63718 78.9951 9.71886 78.6275 9.88224C78.2735 10.0456 77.9672 10.2703 77.7085 10.5562C77.4634 10.8285 77.266 11.1484 77.1163 11.516C76.9801 11.87 76.912 12.2512 76.912 12.6596C76.912 13.0545 76.9801 13.4357 77.1163 13.8033C77.266 14.1573 77.4634 14.4772 77.7085 14.7631C77.9672 15.0354 78.2735 15.2532 78.6275 15.4166C78.9951 15.58 79.3967 15.6617 79.8324 15.6617C80.4723 15.6617 81.0169 15.4983 81.4662 15.1716C81.9291 14.8448 82.249 14.4228 82.426 13.9054H85.183C85.0741 14.5317 84.863 15.1103 84.5499 15.6413C84.2368 16.1586 83.8419 16.6079 83.3654 16.9891C82.9025 17.3567 82.3647 17.6494 81.7521 17.8673C81.153 18.0715 80.5063 18.1736 79.812 18.1736C79.0223 18.1736 78.2871 18.0375 77.6064 17.7652C76.9257 17.4793 76.3334 17.0912 75.8297 16.6011C75.3395 16.0974 74.9515 15.5119 74.6656 14.8448C74.3797 14.1641 74.2367 13.4357 74.2367 12.6596Z" fill="white"/>
<path d="M87.1555 7.32948H89.7286V9.39211C90.1643 8.62969 90.7293 8.06468 91.4237 7.69708C92.1316 7.31587 92.8873 7.12526 93.6905 7.12526V9.8414C93.2276 9.82778 92.7647 9.89586 92.3018 10.0456C91.8389 10.1818 91.4169 10.386 91.0357 10.6583C90.6681 10.9306 90.3617 11.2778 90.1167 11.6998C89.8852 12.1082 89.7559 12.5848 89.7286 13.1294V17.9898H87.1555V7.32948Z" fill="white"/>
<path d="M105.888 17.9898H103.314V16.5807C102.988 17.0844 102.552 17.4793 102.007 17.7652C101.463 18.0375 100.782 18.1736 99.9652 18.1736C99.2164 18.1736 98.5221 18.0375 97.8822 17.7652C97.2559 17.4793 96.7113 17.0912 96.2484 16.6011C95.7855 16.0974 95.4247 15.5119 95.166 14.8448C94.921 14.1641 94.7984 13.4357 94.7984 12.6596C94.7984 11.87 94.921 11.1416 95.166 10.4745C95.4247 9.79375 95.7855 9.20831 96.2484 8.71818C96.7113 8.21444 97.2559 7.82642 97.8822 7.55412C98.5221 7.26821 99.2232 7.12526 99.9856 7.12526C100.803 7.12526 101.476 7.26821 102.007 7.55412C102.552 7.82642 102.988 8.21444 103.314 8.71818V7.32948H105.888V17.9898ZM103.314 12.1695C103.219 11.4615 102.913 10.8693 102.395 10.3928C101.878 9.90266 101.218 9.6576 100.414 9.6576C99.9652 9.6576 99.5568 9.73929 99.1892 9.90266C98.8216 10.066 98.5084 10.2839 98.2498 10.5562C98.0047 10.8285 97.8141 11.1484 97.6779 11.516C97.5418 11.8836 97.4737 12.2716 97.4737 12.6801C97.4737 13.0749 97.5418 13.4493 97.6779 13.8033C97.8141 14.1573 98.0047 14.4704 98.2498 14.7427C98.5084 15.015 98.8216 15.2328 99.1892 15.3962C99.5568 15.5596 99.9652 15.6413 100.414 15.6413C100.809 15.6413 101.177 15.58 101.517 15.4575C101.858 15.3213 102.15 15.1443 102.395 14.9265C102.654 14.695 102.858 14.4296 103.008 14.13C103.171 13.8169 103.274 13.4901 103.314 13.1498V12.1695Z" fill="white"/>
<path d="M115.398 3V5.28727H113.376C112.423 5.28727 111.946 5.8659 111.946 7.02315V7.32948H115.03V9.4738H111.946V17.9898H109.394V9.4738H107.637V7.32948H109.394V6.94146C109.394 5.64806 109.693 4.6678 110.292 4.00068C110.891 3.33356 111.79 3 112.988 3H115.398Z" fill="white"/>
<path d="M120.428 4.18448V7.32948H123.083V9.4738H120.428V14.2934C120.428 14.8925 120.565 15.2941 120.837 15.4983C121.109 15.7025 121.484 15.8046 121.96 15.8046C122.137 15.8046 122.314 15.7978 122.491 15.7842C122.682 15.757 122.879 15.7298 123.083 15.7025V18.0511C122.457 18.1328 121.878 18.1736 121.347 18.1736C120.803 18.1736 120.313 18.1191 119.877 18.0102C119.441 17.9013 119.074 17.7175 118.774 17.4588C118.475 17.1865 118.243 16.8394 118.08 16.4173C117.93 15.9816 117.855 15.4507 117.855 14.8244V9.4738H116.038V7.32948H117.855V4.18448H120.428Z" fill="white"/>
<path d="M124.862 10.3928C124.862 9.35807 125.243 8.55481 126.006 7.98299C126.768 7.41117 127.83 7.12526 129.192 7.12526C130.58 7.12526 131.642 7.41798 132.378 8.00341C133.126 8.58884 133.514 9.41253 133.542 10.4745H130.928C130.914 10.0797 130.751 9.76652 130.438 9.53507C130.138 9.29 129.73 9.16747 129.212 9.16747C128.64 9.16747 128.205 9.26958 127.905 9.4738C127.606 9.66441 127.456 9.94351 127.456 10.3111C127.456 10.6923 127.612 10.9782 127.926 11.1688C128.239 11.3458 128.627 11.4888 129.09 11.5977C129.566 11.7066 130.077 11.8155 130.621 11.9244C131.166 12.0198 131.67 12.1763 132.133 12.3942C132.609 12.5984 133.004 12.8979 133.317 13.2927C133.63 13.6739 133.787 14.2049 133.787 14.8857C133.787 15.9068 133.406 16.71 132.643 17.2955C131.894 17.8673 130.778 18.1532 129.294 18.1532C127.769 18.1532 126.612 17.8469 125.822 17.2342C125.032 16.6215 124.638 15.7978 124.638 14.7631H127.252C127.374 15.6617 128.069 16.111 129.335 16.111C130.546 16.111 131.152 15.7434 131.152 15.0082C131.152 14.6406 130.996 14.3683 130.683 14.1913C130.369 14.0143 129.981 13.8782 129.519 13.7829C129.056 13.6739 128.552 13.5718 128.007 13.4765C127.463 13.3812 126.959 13.2247 126.496 13.0068C126.033 12.789 125.645 12.4827 125.332 12.0878C125.019 11.6794 124.862 11.1144 124.862 10.3928Z" fill="white"/>
<rect y="2.44727" width="20.1818" height="12.6136" rx="2.52273" transform="rotate(-6.9662 0 2.44727)" fill="#FDC73D"/>
<rect x="5.66016" y="7.56836" width="17.8918" height="11.1824" rx="2.52273" transform="rotate(7.63483 5.66016 7.56836)" fill="white"/>
</svg>
